<?xml version="1.0" encoding="UTF-8"?><svg id="Layer_1" xmlns="http://www.w3.org/2000/svg" width="180" height="32" viewBox="0 0 180 32"><defs><style>.cls-1{fill:#00e054;fill-rule:evenodd;}</style></defs><path class="cls-1" d="M33.17,11.48h-10.95l-3.27-9.8c-.3-.9-1.59-.9-1.89,0l-3.27,9.81H2.85c-.81.06-1.21,1.44-.43,2l8.69,6.2-3.32,10.04c-.3.9.75,1.65,1.53,1.09l8.69-6.2,8.69,6.2c.78.56,1.83-.19,1.53-1.09l-3.32-10.04,8.69-6.2c.78-.55.38-1.94-.43-2M69.17,11.48h-10.95l-3.27-9.81c-.29-.9-1.59-.9-1.89,0l-3.27,9.81h-10.95c-.81.06-1.21,1.44-.43,2l8.69,6.2-3.32,10.04c-.3.9.75,1.65,1.53,1.09l8.69-6.2,8.69,6.2c.78.56,1.83-.19,1.53-1.09l-3.32-10.04,8.69-6.2c.78-.55.38-1.94-.43-2M105.17,11.48h-10.95l-3.27-9.81c-.29-.9-1.59-.9-1.89,0l-3.27,9.81h-10.95c-.81.06-1.21,1.44-.43,2l8.69,6.2-3.32,10.04c-.3.9.75,1.65,1.53,1.09l8.69-6.2,8.69,6.2c.78.56,1.83-.19,1.53-1.09l-3.32-10.04,8.69-6.2c.78-.55.38-1.94-.43-2M141.17,11.48h-10.95l-3.27-9.81c-.29-.9-1.59-.9-1.89,0l-3.27,9.81h-10.95c-.81.06-1.21,1.44-.43,2l8.69,6.2-3.32,10.04c-.3.9.75,1.65,1.53,1.09l8.69-6.2,8.69,6.2c.78.56,1.83-.19,1.53-1.09l-3.32-10.04,8.69-6.2c.78-.55.38-1.94-.43-2M177.17,11.48h-10.95l-3.27-9.81c-.29-.9-1.59-.9-1.89,0l-3.27,9.81h-10.95c-.81.06-1.21,1.44-.43,2l8.69,6.2-3.32,10.04c-.3.9.75,1.65,1.53,1.09l8.69-6.2,8.69,6.2c.78.56,1.83-.19,1.53-1.09l-3.32-10.04,8.69-6.2c.78-.55.38-1.94-.43-2"/></svg>