<?xml version="1.0" encoding="UTF-8"?><svg id="Layer_1" xmlns="http://www.w3.org/2000/svg" width="50" height="40" viewBox="0 0 50 40"><defs><style>.cls-1{fill:#00e054;fill-rule:evenodd;}.cls-1,.cls-2{stroke:#00e054;}.cls-2{fill:none;stroke-linecap:round;stroke-linejoin:round;stroke-width:1.5px;}</style></defs><path class="cls-1" d="M25,7.7c-7.5,0-13.33,4.69-20.5,12.3,6.17,6.5,11.35,12.3,20.5,12.3s15.87-7.34,20.5-12.17c-4.74-5.65-11.46-12.43-20.5-12.43ZM25,28.41c-4.68,0-8.49-3.77-8.49-8.41s3.81-8.41,8.49-8.41,8.49,3.77,8.49,8.41-3.81,8.41-8.49,8.41ZM25,15.27c-2.64,0-4.78,2.12-4.78,4.73s2.14,4.74,4.78,4.74,4.78-2.12,4.78-4.74-2.14-4.74-4.78-4.74h0Z"/><path class="cls-2" d="M4.5,20c6.17,6.5,11.35,12.3,20.5,12.3s15.87-7.34,20.5-12.17c-4.74-5.65-11.46-12.43-20.5-12.43-7.5,0-13.33,4.69-20.5,12.3"/></svg>