<?xml version="1.0" encoding="UTF-8"?><svg id="Layer_1" xmlns="http://www.w3.org/2000/svg" width="50" height="40" viewBox="0 0 50 40"><defs><style>.cls-1{fill:none;stroke:#91a3ac;stroke-linecap:round;stroke-linejoin:round;stroke-width:1.5px;}.cls-2{fill:#91a3ac;}.cls-2,.cls-3{fill-rule:evenodd;}.cls-3{fill:#bcd;}</style></defs><path class="cls-1" d="M28.85,32.4c-2.01,1.09-4.27,1.66-6.55,1.65-7.69,0-13.93-6.3-13.93-14.08s6.23-14.09,13.93-14.09,13.93,6.3,13.93,14.09v.41"/><path class="cls-2" d="M23.51,21.02c-.66.68-1.75.7-2.43.04l-.02-.02c-.67-.67-.66-1.78.02-2.47.66-.68,1.75-.7,2.43-.03h.01c.67.69.66,1.8-.02,2.48"/><path class="cls-1" d="M15.57,18.4l6.84,1.77,6.66-6.39"/><path class="cls-3" d="M35.42,24.93h1.23v2.9h2.87v1.24h-2.87v2.9h-1.23v-2.9h-2.87v-1.24h2.87v-2.9ZM29.67,28.45c0,3.55,2.84,6.42,6.35,6.42s6.35-2.88,6.35-6.42-2.84-6.42-6.35-6.42-6.35,2.88-6.35,6.42"/></svg>