<?xml version="1.0" encoding="UTF-8"?><svg id="Layer_1" xmlns="http://www.w3.org/2000/svg" width="50" height="40" viewBox="0 0 50 40"><defs><style>.cls-1{fill:#3f4e5a;}.cls-1,.cls-2,.cls-3{fill-rule:evenodd;}.cls-4{fill:none;stroke:#3f4e5a;}.cls-4,.cls-2{stroke-linecap:round;stroke-linejoin:round;stroke-width:1.5px;}.cls-2{fill:#40bcf4;stroke:#40bcf4;}.cls-3{fill:#bcd;}</style></defs><path class="cls-2" d="M36.38,19.98c0-7.79-6.27-14.1-14-14.1s-14,6.31-14,14.1,6.27,14.1,14,14.1c2.22,0,4.4-.53,6.37-1.54-.67-1.25-1.02-2.64-1.02-4.06,0-4.69,3.78-8.5,8.44-8.5h.21Z"/><path class="cls-1" d="M23.51,21.02c-.66.68-1.75.7-2.43.04l-.02-.02c-.67-.67-.66-1.78.02-2.47.66-.68,1.75-.7,2.43-.03h.01c.67.69.66,1.8-.02,2.48"/><path class="cls-4" d="M15.57,18.4l6.84,1.77,6.66-6.39"/><path class="cls-3" d="M39.5,27.83v1.24h-6.96v-1.24h6.96ZM36.02,34.88c3.51,0,6.35-2.88,6.35-6.42s-2.84-6.42-6.35-6.42-6.35,2.88-6.35,6.42,2.84,6.42,6.35,6.42"/></svg>